<?xml version="1.0" encoding="UTF-8" standalone="no"?>
<!DOCTYPE svg PUBLIC "-//W3C//DTD SVG 1.1//EN"
 "http://www.w3.org/Graphics/SVG/1.1/DTD/svg11.dtd">
<!-- Generated by graphviz version 2.40.1 (20161225.0304)
 -->
<!-- Title: %0 Pages: 1 -->
<svg width="1209pt" height="428pt"
 viewBox="0.00 0.00 1209.07 428.00" xmlns="http://www.w3.org/2000/svg" xmlns:xlink="http://www.w3.org/1999/xlink">
<g id="graph0" class="graph" transform="scale(1 1) rotate(0) translate(4 424)">
<title>%0</title>
<polygon fill="#ffffff" stroke="transparent" points="-4,4 -4,-424 1205.066,-424 1205.066,4 -4,4"/>
<g id="clust1" class="cluster">
<title>cluster_7</title>
<path fill="#0072b2" fill-opacity="0.501961" stroke="#000000" d="M20,-136C20,-136 205.1206,-136 205.1206,-136 211.1206,-136 217.1206,-142 217.1206,-148 217.1206,-148 217.1206,-315 217.1206,-315 217.1206,-321 211.1206,-327 205.1206,-327 205.1206,-327 20,-327 20,-327 14,-327 8,-321 8,-315 8,-315 8,-148 8,-148 8,-142 14,-136 20,-136"/>
<text text-anchor="middle" x="112.5603" y="-306.8" font-family="Helvetica,sans-Serif" font-weight="bold" font-size="18.00" fill="#000000">Diet shift</text>
<text text-anchor="middle" x="112.5603" y="-285.2" font-family="Helvetica,sans-Serif" font-weight="bold" font-size="18.00" fill="#000000">scenarios</text>
</g>
<g id="clust2" class="cluster">
<title>cluster_8</title>
<path fill="#0072b2" fill-opacity="0.501961" stroke="#000000" d="M41.6676,-8C41.6676,-8 183.453,-8 183.453,-8 189.453,-8 195.453,-14 195.453,-20 195.453,-20 195.453,-116 195.453,-116 195.453,-122 189.453,-128 183.453,-128 183.453,-128 41.6676,-128 41.6676,-128 35.6676,-128 29.6676,-122 29.6676,-116 29.6676,-116 29.6676,-20 29.6676,-20 29.6676,-14 35.6676,-8 41.6676,-8"/>
<text text-anchor="middle" x="112.5603" y="-107.8" font-family="Helvetica,sans-Serif" font-weight="bold" font-size="18.00" fill="#000000"> &#160;Waste reduction &#160;</text>
<text text-anchor="middle" x="112.5603" y="-86.2" font-family="Helvetica,sans-Serif" font-weight="bold" font-size="18.00" fill="#000000">scenarios</text>
</g>
<g id="clust3" class="cluster">
<title>cluster_0</title>
<path fill="#0072b2" fill-opacity="0.501961" stroke="#000000" d="M249.1206,-139C249.1206,-139 379.906,-139 379.906,-139 385.906,-139 391.906,-145 391.906,-151 391.906,-151 391.906,-225 391.906,-225 391.906,-231 385.906,-237 379.906,-237 379.906,-237 249.1206,-237 249.1206,-237 243.1206,-237 237.1206,-231 237.1206,-225 237.1206,-225 237.1206,-151 237.1206,-151 237.1206,-145 243.1206,-139 249.1206,-139"/>
<text text-anchor="middle" x="314.5133" y="-216.8" font-family="Helvetica,sans-Serif" font-weight="bold" font-size="18.00" fill="#000000"> Food consumed </text>
</g>
<g id="clust4" class="cluster">
<title>cluster_1</title>
<path fill="#0072b2" fill-opacity="0.501961" stroke="#000000" d="M423.3148,-211C423.3148,-211 603.218,-211 603.218,-211 609.218,-211 615.218,-217 615.218,-223 615.218,-223 615.218,-390 615.218,-390 615.218,-396 609.218,-402 603.218,-402 603.218,-402 423.3148,-402 423.3148,-402 417.3148,-402 411.3148,-396 411.3148,-390 411.3148,-390 411.3148,-223 411.3148,-223 411.3148,-217 417.3148,-211 423.3148,-211"/>
<text text-anchor="middle" x="513.2664" y="-381.8" font-family="Helvetica,sans-Serif" font-weight="bold" font-size="18.00" fill="#000000"> &#160;Domestic agricultural &#160;</text>
<text text-anchor="middle" x="513.2664" y="-360.2" font-family="Helvetica,sans-Serif" font-weight="bold" font-size="18.00" fill="#000000">production</text>
</g>
<g id="clust5" class="cluster">
<title>cluster_2</title>
<path fill="#0072b2" fill-opacity="0.501961" stroke="#000000" d="M429.906,-62C429.906,-62 595.6268,-62 595.6268,-62 601.6268,-62 607.6268,-68 607.6268,-74 607.6268,-74 607.6268,-187 607.6268,-187 607.6268,-193 601.6268,-199 595.6268,-199 595.6268,-199 429.906,-199 429.906,-199 423.906,-199 417.906,-193 417.906,-187 417.906,-187 417.906,-74 417.906,-74 417.906,-68 423.906,-62 429.906,-62"/>
<text text-anchor="middle" x="512.7664" y="-178.8" font-family="Helvetica,sans-Serif" font-weight="bold" font-size="18.00" fill="#000000"> &#160;Foreign agricultural &#160;</text>
<text text-anchor="middle" x="512.7664" y="-157.2" font-family="Helvetica,sans-Serif" font-weight="bold" font-size="18.00" fill="#000000">imports</text>
</g>
<g id="clust6" class="cluster">
<title>cluster_3</title>
<path fill="#0072b2" fill-opacity="0.501961" stroke="#000000" d="M646.6268,-205C646.6268,-205 806.903,-205 806.903,-205 812.903,-205 818.903,-211 818.903,-217 818.903,-217 818.903,-400 818.903,-400 818.903,-406 812.903,-412 806.903,-412 806.903,-412 646.6268,-412 646.6268,-412 640.6268,-412 634.6268,-406 634.6268,-400 634.6268,-400 634.6268,-217 634.6268,-217 634.6268,-211 640.6268,-205 646.6268,-205"/>
<text text-anchor="middle" x="726.7649" y="-391.8" font-family="Helvetica,sans-Serif" font-weight="bold" font-size="18.00" fill="#000000">Domestic land</text>
<text text-anchor="middle" x="726.7649" y="-370.2" font-family="Helvetica,sans-Serif" font-weight="bold" font-size="18.00" fill="#000000">footprint</text>
</g>
<g id="clust7" class="cluster">
<title>cluster_4</title>
<path fill="#0072b2" fill-opacity="0.501961" stroke="#000000" d="M664.1513,-60C664.1513,-60 789.3785,-60 789.3785,-60 795.3785,-60 801.3785,-66 801.3785,-72 801.3785,-72 801.3785,-185 801.3785,-185 801.3785,-191 795.3785,-197 789.3785,-197 789.3785,-197 664.1513,-197 664.1513,-197 658.1513,-197 652.1513,-191 652.1513,-185 652.1513,-185 652.1513,-72 652.1513,-72 652.1513,-66 658.1513,-60 664.1513,-60"/>
<text text-anchor="middle" x="726.7649" y="-176.8" font-family="Helvetica,sans-Serif" font-weight="bold" font-size="18.00" fill="#000000">Foreign land</text>
<text text-anchor="middle" x="726.7649" y="-155.2" font-family="Helvetica,sans-Serif" font-weight="bold" font-size="18.00" fill="#000000">footprint</text>
</g>
<g id="clust8" class="cluster">
<title>cluster_6</title>
<path fill="#0072b2" fill-opacity="0.501961" stroke="#000000" d="M1023.923,-41C1023.923,-41 1181.066,-41 1181.066,-41 1187.066,-41 1193.066,-47 1193.066,-53 1193.066,-53 1193.066,-237 1193.066,-237 1193.066,-243 1187.066,-249 1181.066,-249 1181.066,-249 1023.923,-249 1023.923,-249 1017.923,-249 1011.923,-243 1011.923,-237 1011.923,-237 1011.923,-53 1011.923,-53 1011.923,-47 1017.923,-41 1023.923,-41"/>
<text text-anchor="middle" x="1102.4945" y="-228.8" font-family="Helvetica,sans-Serif" font-weight="bold" font-size="18.00" fill="#000000">Biodiversity threat</text>
<text text-anchor="middle" x="1102.4945" y="-207.2" font-family="Helvetica,sans-Serif" font-weight="bold" font-size="18.00" fill="#000000">footprint</text>
</g>
<!-- K -->
<g id="node1" class="node">
<title>K</title>
<polygon fill="#009e73" fill-opacity="0.501961" stroke="#000000" points="209.1809,-267.3004 15.9397,-267.3004 15.9397,-214.6996 209.1809,-214.6996 209.1809,-267.3004"/>
<text text-anchor="middle" x="112.5603" y="-236.8" font-family="Helvetica,sans-Serif" font-size="14.00" fill="#000000">USDA Dietary Guidelines</text>
</g>
<!-- A -->
<g id="node4" class="node">
<title>A</title>
<polygon fill="#009e73" fill-opacity="0.501961" stroke="#000000" points="370.7989,-199.3004 257.2277,-199.3004 257.2277,-146.6996 370.7989,-146.6996 370.7989,-199.3004"/>
<text text-anchor="middle" x="314.0133" y="-168.8" font-family="Helvetica,sans-Serif" font-size="14.00" fill="#000000">USDA LAFA</text>
</g>
<!-- K&#45;&gt;A -->
<g id="edge1" class="edge">
<title>K&#45;&gt;A</title>
<path fill="none" stroke="#000000" d="M217.1179,-205.7068C219.8331,-204.7903 222.5447,-203.875 225.2446,-202.9637"/>
<polygon fill="#000000" stroke="#000000" points="237.1225,-198.9543 227.078,-208.2817 231.2007,-200.9532 225.279,-202.9521 225.279,-202.9521 225.279,-202.9521 231.2007,-200.9532 223.48,-197.6226 237.1225,-198.9543 237.1225,-198.9543"/>
</g>
<!-- L -->
<g id="node2" class="node">
<title>L</title>
<polygon fill="#009e73" fill-opacity="0.501961" stroke="#000000" points="180.9212,-196.3004 44.1994,-196.3004 44.1994,-143.6996 180.9212,-143.6996 180.9212,-196.3004"/>
<text text-anchor="middle" x="112.5603" y="-165.8" font-family="Helvetica,sans-Serif" font-size="14.00" fill="#000000">EAT&#45;Lancet diet</text>
</g>
<!-- M -->
<g id="node3" class="node">
<title>M</title>
<polygon fill="#009e73" fill-opacity="0.501961" stroke="#000000" points="169.3459,-68.3004 55.7747,-68.3004 55.7747,-15.6996 169.3459,-15.6996 169.3459,-68.3004"/>
<text text-anchor="middle" x="112.5603" y="-37.8" font-family="Helvetica,sans-Serif" font-size="14.00" fill="#000000">USDA LAFA</text>
</g>
<!-- M&#45;&gt;A -->
<g id="edge2" class="edge">
<title>M&#45;&gt;A</title>
<path fill="none" stroke="#000000" d="M195.4516,-95.9022C214.0663,-108.0069 233.5205,-120.6575 251.1607,-132.1285"/>
<polygon fill="#000000" stroke="#000000" points="261.7324,-139.003 248.1867,-136.9042 256.4928,-135.5958 251.2532,-132.1886 251.2532,-132.1886 251.2532,-132.1886 256.4928,-135.5958 254.3197,-127.4729 261.7324,-139.003 261.7324,-139.003"/>
</g>
<!-- B -->
<g id="node5" class="node">
<title>B</title>
<polygon fill="#009e73" fill-opacity="0.501961" stroke="#000000" points="576.8449,-342.3004 448.6879,-342.3004 448.6879,-289.6996 576.8449,-289.6996 576.8449,-342.3004"/>
<text text-anchor="middle" x="512.7664" y="-311.8" font-family="Helvetica,sans-Serif" font-size="14.00" fill="#000000">BEA I&#45;O tables</text>
</g>
<!-- A&#45;&gt;B -->
<g id="edge3" class="edge">
<title>A&#45;&gt;B</title>
<path fill="none" stroke="#000000" d="M362.8088,-236.9957C374.2343,-249.512 387.1115,-261.9944 400.8198,-272.4881"/>
<polygon fill="#000000" stroke="#000000" points="411.3148,-280 397.8763,-277.2986 406.2325,-276.3623 401.1502,-272.7246 401.1502,-272.7246 401.1502,-272.7246 406.2325,-276.3623 404.4242,-268.1505 411.3148,-280 411.3148,-280"/>
</g>
<!-- D -->
<g id="node7" class="node">
<title>D</title>
<polygon fill="#009e73" fill-opacity="0.501961" stroke="#000000" points="592.4874,-139.6011 433.0454,-139.6011 433.0454,-70.3989 592.4874,-70.3989 592.4874,-139.6011"/>
<text text-anchor="middle" x="512.7664" y="-109.2" font-family="Helvetica,sans-Serif" font-size="14.00" fill="#000000">FAOSTAT trade</text>
<text text-anchor="middle" x="512.7664" y="-92.4" font-family="Helvetica,sans-Serif" font-size="14.00" fill="#000000">and production data</text>
</g>
<!-- A&#45;&gt;D -->
<g id="edge4" class="edge">
<title>A&#45;&gt;D</title>
<path fill="none" stroke="#000000" d="M391.9053,-146.3506C396.5097,-144.7753 401.1787,-143.1779 405.8701,-141.5727"/>
<polygon fill="#000000" stroke="#000000" points="417.9108,-137.4532 407.9047,-146.8218 411.9973,-139.4765 406.0838,-141.4997 406.0838,-141.4997 406.0838,-141.4997 411.9973,-139.4765 404.2629,-136.1776 417.9108,-137.4532 417.9108,-137.4532"/>
</g>
<!-- E -->
<g id="node8" class="node">
<title>E</title>
<polygon fill="#009e73" fill-opacity="0.501961" stroke="#000000" points="797.5602,-352.6011 655.9696,-352.6011 655.9696,-283.3989 797.5602,-283.3989 797.5602,-352.6011"/>
<text text-anchor="middle" x="726.7649" y="-322.2" font-family="Helvetica,sans-Serif" font-size="14.00" fill="#000000">USDA Census of</text>
<text text-anchor="middle" x="726.7649" y="-305.4" font-family="Helvetica,sans-Serif" font-size="14.00" fill="#000000">Agriculture</text>
</g>
<!-- B&#45;&gt;E -->
<g id="edge5" class="edge">
<title>B&#45;&gt;E</title>
<path fill="none" stroke="#000000" d="M615.218,-316.9575C617.4141,-316.978 619.6127,-316.9986 621.8103,-317.0191"/>
<polygon fill="#000000" stroke="#000000" points="634.6282,-317.1389 622.0762,-322.6467 628.3785,-317.0804 622.1288,-317.022 622.1288,-317.022 622.1288,-317.022 628.3785,-317.0804 622.1814,-311.3972 634.6282,-317.1389 634.6282,-317.1389"/>
</g>
<!-- C -->
<g id="node6" class="node">
<title>C</title>
<polygon fill="#d55e00" fill-opacity="0.501961" stroke="#000000" points="578.1696,-271.3004 447.3632,-271.3004 447.3632,-218.6996 578.1696,-218.6996 578.1696,-271.3004"/>
<text text-anchor="middle" x="512.7664" y="-240.8" font-family="Helvetica,sans-Serif" font-size="14.00" fill="#000000">USEEIO model</text>
</g>
<!-- G -->
<g id="node10" class="node">
<title>G</title>
<polygon fill="#009e73" fill-opacity="0.501961" stroke="#000000" points="793.4923,-137.6011 660.0375,-137.6011 660.0375,-68.3989 793.4923,-68.3989 793.4923,-137.6011"/>
<text text-anchor="middle" x="726.7649" y="-107.2" font-family="Helvetica,sans-Serif" font-size="14.00" fill="#000000">FAOSTAT yield</text>
<text text-anchor="middle" x="726.7649" y="-90.4" font-family="Helvetica,sans-Serif" font-size="14.00" fill="#000000">and FBS data</text>
</g>
<!-- D&#45;&gt;G -->
<g id="edge6" class="edge">
<title>D&#45;&gt;G</title>
<path fill="none" stroke="#000000" d="M607.6264,-104.1135C620.8106,-103.9902 634.2438,-103.8647 647.1115,-103.7444"/>
<polygon fill="#000000" stroke="#000000" points="652.1513,-103.6257 639.7874,-109.5438 645.903,-103.773 639.6548,-103.9204 639.6548,-103.9204 639.6548,-103.9204 645.903,-103.773 639.5221,-98.297 652.1513,-103.6257 652.1513,-103.6257"/>
</g>
<!-- H -->
<g id="node13" class="node">
<title>H</title>
<path fill="#0072b2" fill-opacity="0.501961" stroke="#000000" d="M971.933,-213.7002C971.933,-213.7002 858.893,-213.7002 858.893,-213.7002 852.893,-213.7002 846.893,-207.7002 846.893,-201.7002 846.893,-201.7002 846.893,-124.2998 846.893,-124.2998 846.893,-118.2998 852.893,-112.2998 858.893,-112.2998 858.893,-112.2998 971.933,-112.2998 971.933,-112.2998 977.933,-112.2998 983.933,-118.2998 983.933,-124.2998 983.933,-124.2998 983.933,-201.7002 983.933,-201.7002 983.933,-207.7002 977.933,-213.7002 971.933,-213.7002"/>
<text text-anchor="middle" x="915.413" y="-168.4" font-family="Helvetica,sans-Serif" font-weight="bold" font-size="18.00" fill="#000000">Total land</text>
<text text-anchor="middle" x="915.413" y="-146.8" font-family="Helvetica,sans-Serif" font-weight="bold" font-size="18.00" fill="#000000">footprint</text>
</g>
<!-- E&#45;&gt;H -->
<g id="edge7" class="edge">
<title>E&#45;&gt;H</title>
<path fill="none" stroke="#000000" d="M818.903,-274C837.6806,-259.7158 855.4748,-241.2843 870.5498,-223.5595"/>
<polygon fill="#000000" stroke="#000000" points="878.634,-213.8159 874.9813,-227.0276 874.6431,-218.6259 870.6523,-223.4359 870.6523,-223.4359 870.6523,-223.4359 874.6431,-218.6259 866.3233,-219.8441 878.634,-213.8159 878.634,-213.8159"/>
</g>
<!-- F -->
<g id="node9" class="node">
<title>F</title>
<polygon fill="#d55e00" fill-opacity="0.501961" stroke="#000000" points="811.0413,-265.3004 642.4885,-265.3004 642.4885,-212.6996 811.0413,-212.6996 811.0413,-265.3004"/>
<text text-anchor="middle" x="726.7649" y="-234.8" font-family="Helvetica,sans-Serif" font-size="14.00" fill="#000000">land exchange tables</text>
</g>
<!-- G&#45;&gt;H -->
<g id="edge8" class="edge">
<title>G&#45;&gt;H</title>
<path fill="none" stroke="#000000" d="M801.3739,-126.7296C812.3684,-130.2264 823.737,-133.8422 834.8455,-137.3753"/>
<polygon fill="#000000" stroke="#000000" points="846.8143,-141.182 833.1973,-142.7537 840.8582,-139.2876 834.9022,-137.3933 834.9022,-137.3933 834.9022,-137.3933 840.8582,-139.2876 836.6072,-132.0329 846.8143,-141.182 846.8143,-141.182"/>
</g>
<!-- I -->
<g id="node11" class="node">
<title>I</title>
<polygon fill="#009e73" fill-opacity="0.501961" stroke="#000000" points="1174.5969,-189.3004 1030.3921,-189.3004 1030.3921,-136.6996 1174.5969,-136.6996 1174.5969,-189.3004"/>
<text text-anchor="middle" x="1102.4945" y="-158.8" font-family="Helvetica,sans-Serif" font-size="14.00" fill="#000000">IUCN, WWF data</text>
</g>
<!-- J -->
<g id="node12" class="node">
<title>J</title>
<polygon fill="#d55e00" fill-opacity="0.501961" stroke="#000000" points="1185.1376,-118.6011 1019.8514,-118.6011 1019.8514,-49.3989 1185.1376,-49.3989 1185.1376,-118.6011"/>
<text text-anchor="middle" x="1102.4945" y="-88.2" font-family="Helvetica,sans-Serif" font-size="14.00" fill="#000000">Chaudhary &amp; Brooks</text>
<text text-anchor="middle" x="1102.4945" y="-71.4" font-family="Helvetica,sans-Serif" font-size="14.00" fill="#000000">model</text>
</g>
<!-- H&#45;&gt;I -->
<g id="edge9" class="edge">
<title>H&#45;&gt;I</title>
<path fill="none" stroke="#000000" d="M984.0129,-163C988.9847,-163 994.058,-163 999.1706,-163"/>
<polygon fill="#000000" stroke="#000000" points="1011.925,-163 999.4251,-168.6251 1005.675,-163 999.425,-163.0001 999.425,-163.0001 999.425,-163.0001 1005.675,-163 999.425,-157.3751 1011.925,-163 1011.925,-163"/>
</g>
</g>
</svg>

