<?xml version="1.0" encoding="UTF-8" standalone="no"?>
<!DOCTYPE svg PUBLIC "-//W3C//DTD SVG 1.1//EN"
 "http://www.w3.org/Graphics/SVG/1.1/DTD/svg11.dtd">
<!-- Generated by graphviz version 2.40.1 (20161225.0304)
 -->
<!-- Title: %0 Pages: 1 -->
<svg width="1208pt" height="412pt"
 viewBox="0.00 0.00 1207.67 412.00" xmlns="http://www.w3.org/2000/svg" xmlns:xlink="http://www.w3.org/1999/xlink">
<g id="graph0" class="graph" transform="scale(1 1) rotate(0) translate(4 408)">
<title>%0</title>
<polygon fill="#ffffff" stroke="transparent" points="-4,4 -4,-408 1203.6678,-408 1203.6678,4 -4,4"/>
<g id="clust1" class="cluster">
<title>cluster_7</title>
<path fill="#0072b2" fill-opacity="0.501961" stroke="#000000" d="M20,-136C20,-136 205.1206,-136 205.1206,-136 211.1206,-136 217.1206,-142 217.1206,-148 217.1206,-148 217.1206,-315 217.1206,-315 217.1206,-321 211.1206,-327 205.1206,-327 205.1206,-327 20,-327 20,-327 14,-327 8,-321 8,-315 8,-315 8,-148 8,-148 8,-142 14,-136 20,-136"/>
<text text-anchor="middle" x="112.5603" y="-306.8" font-family="Helvetica,sans-Serif" font-weight="bold" font-size="18.00" fill="#000000">Diet shift</text>
<text text-anchor="middle" x="112.5603" y="-285.2" font-family="Helvetica,sans-Serif" font-weight="bold" font-size="18.00" fill="#000000">scenarios</text>
</g>
<g id="clust2" class="cluster">
<title>cluster_8</title>
<path fill="#0072b2" fill-opacity="0.501961" stroke="#000000" d="M41.6676,-8C41.6676,-8 183.453,-8 183.453,-8 189.453,-8 195.453,-14 195.453,-20 195.453,-20 195.453,-116 195.453,-116 195.453,-122 189.453,-128 183.453,-128 183.453,-128 41.6676,-128 41.6676,-128 35.6676,-128 29.6676,-122 29.6676,-116 29.6676,-116 29.6676,-20 29.6676,-20 29.6676,-14 35.6676,-8 41.6676,-8"/>
<text text-anchor="middle" x="112.5603" y="-107.8" font-family="Helvetica,sans-Serif" font-weight="bold" font-size="18.00" fill="#000000"> &#160;Waste reduction &#160;</text>
<text text-anchor="middle" x="112.5603" y="-86.2" font-family="Helvetica,sans-Serif" font-weight="bold" font-size="18.00" fill="#000000">scenarios</text>
</g>
<g id="clust3" class="cluster">
<title>cluster_0</title>
<path fill="#0072b2" fill-opacity="0.501961" stroke="#000000" d="M249.1206,-138C249.1206,-138 379.906,-138 379.906,-138 385.906,-138 391.906,-144 391.906,-150 391.906,-150 391.906,-224 391.906,-224 391.906,-230 385.906,-236 379.906,-236 379.906,-236 249.1206,-236 249.1206,-236 243.1206,-236 237.1206,-230 237.1206,-224 237.1206,-224 237.1206,-150 237.1206,-150 237.1206,-144 243.1206,-138 249.1206,-138"/>
<text text-anchor="middle" x="314.5133" y="-215.8" font-family="Helvetica,sans-Serif" font-weight="bold" font-size="18.00" fill="#000000"> Food consumed </text>
</g>
<g id="clust4" class="cluster">
<title>cluster_1</title>
<path fill="#0072b2" fill-opacity="0.501961" stroke="#000000" d="M422.906,-205C422.906,-205 602.8092,-205 602.8092,-205 608.8092,-205 614.8092,-211 614.8092,-217 614.8092,-217 614.8092,-384 614.8092,-384 614.8092,-390 608.8092,-396 602.8092,-396 602.8092,-396 422.906,-396 422.906,-396 416.906,-396 410.906,-390 410.906,-384 410.906,-384 410.906,-217 410.906,-217 410.906,-211 416.906,-205 422.906,-205"/>
<text text-anchor="middle" x="512.8576" y="-375.8" font-family="Helvetica,sans-Serif" font-weight="bold" font-size="18.00" fill="#000000"> &#160;Domestic agricultural &#160;</text>
<text text-anchor="middle" x="512.8576" y="-354.2" font-family="Helvetica,sans-Serif" font-weight="bold" font-size="18.00" fill="#000000">production</text>
</g>
<g id="clust5" class="cluster">
<title>cluster_2</title>
<path fill="#0072b2" fill-opacity="0.501961" stroke="#000000" d="M430.0785,-60C430.0785,-60 595.6367,-60 595.6367,-60 601.6367,-60 607.6367,-66 607.6367,-72 607.6367,-72 607.6367,-185 607.6367,-185 607.6367,-191 601.6367,-197 595.6367,-197 595.6367,-197 430.0785,-197 430.0785,-197 424.0785,-197 418.0785,-191 418.0785,-185 418.0785,-185 418.0785,-72 418.0785,-72 418.0785,-66 424.0785,-60 430.0785,-60"/>
<text text-anchor="middle" x="512.8576" y="-176.8" font-family="Helvetica,sans-Serif" font-weight="bold" font-size="18.00" fill="#000000"> &#160;Foreign agricultural &#160;</text>
<text text-anchor="middle" x="512.8576" y="-155.2" font-family="Helvetica,sans-Serif" font-weight="bold" font-size="18.00" fill="#000000">imports</text>
</g>
<g id="clust6" class="cluster">
<title>cluster_3</title>
<path fill="#0072b2" fill-opacity="0.501961" stroke="#000000" d="M646.8092,-205C646.8092,-205 805.5048,-205 805.5048,-205 811.5048,-205 817.5048,-211 817.5048,-217 817.5048,-217 817.5048,-384 817.5048,-384 817.5048,-390 811.5048,-396 805.5048,-396 805.5048,-396 646.8092,-396 646.8092,-396 640.8092,-396 634.8092,-390 634.8092,-384 634.8092,-384 634.8092,-217 634.8092,-217 634.8092,-211 640.8092,-205 646.8092,-205"/>
<text text-anchor="middle" x="726.157" y="-375.8" font-family="Helvetica,sans-Serif" font-weight="bold" font-size="18.00" fill="#000000">Domestic land</text>
<text text-anchor="middle" x="726.157" y="-354.2" font-family="Helvetica,sans-Serif" font-weight="bold" font-size="18.00" fill="#000000">footprint</text>
</g>
<g id="clust7" class="cluster">
<title>cluster_4</title>
<path fill="#0072b2" fill-opacity="0.501961" stroke="#000000" d="M653.0259,-60C653.0259,-60 799.2881,-60 799.2881,-60 805.2881,-60 811.2881,-66 811.2881,-72 811.2881,-72 811.2881,-185 811.2881,-185 811.2881,-191 805.2881,-197 799.2881,-197 799.2881,-197 653.0259,-197 653.0259,-197 647.0259,-197 641.0259,-191 641.0259,-185 641.0259,-185 641.0259,-72 641.0259,-72 641.0259,-66 647.0259,-60 653.0259,-60"/>
<text text-anchor="middle" x="726.157" y="-176.8" font-family="Helvetica,sans-Serif" font-weight="bold" font-size="18.00" fill="#000000">Foreign land</text>
<text text-anchor="middle" x="726.157" y="-155.2" font-family="Helvetica,sans-Serif" font-weight="bold" font-size="18.00" fill="#000000">footprint</text>
</g>
<g id="clust8" class="cluster">
<title>cluster_6</title>
<path fill="#0072b2" fill-opacity="0.501961" stroke="#000000" d="M1022.5248,-41C1022.5248,-41 1179.6678,-41 1179.6678,-41 1185.6678,-41 1191.6678,-47 1191.6678,-53 1191.6678,-53 1191.6678,-237 1191.6678,-237 1191.6678,-243 1185.6678,-249 1179.6678,-249 1179.6678,-249 1022.5248,-249 1022.5248,-249 1016.5248,-249 1010.5248,-243 1010.5248,-237 1010.5248,-237 1010.5248,-53 1010.5248,-53 1010.5248,-47 1016.5248,-41 1022.5248,-41"/>
<text text-anchor="middle" x="1101.0963" y="-228.8" font-family="Helvetica,sans-Serif" font-weight="bold" font-size="18.00" fill="#000000">Biodiversity threat</text>
<text text-anchor="middle" x="1101.0963" y="-207.2" font-family="Helvetica,sans-Serif" font-weight="bold" font-size="18.00" fill="#000000">footprint</text>
</g>
<!-- K -->
<g id="node1" class="node">
<title>K</title>
<polygon fill="#009e73" fill-opacity="0.501961" stroke="#000000" points="209.1809,-267.3004 15.9397,-267.3004 15.9397,-214.6996 209.1809,-214.6996 209.1809,-267.3004"/>
<text text-anchor="middle" x="112.5603" y="-236.8" font-family="Helvetica,sans-Serif" font-size="14.00" fill="#000000">USDA Dietary Guidelines</text>
</g>
<!-- A -->
<g id="node4" class="node">
<title>A</title>
<polygon fill="#009e73" fill-opacity="0.501961" stroke="#000000" points="370.7989,-198.3004 257.2277,-198.3004 257.2277,-145.6996 370.7989,-145.6996 370.7989,-198.3004"/>
<text text-anchor="middle" x="314.0133" y="-167.8" font-family="Helvetica,sans-Serif" font-size="14.00" fill="#000000">USDA LAFA</text>
</g>
<!-- K&#45;&gt;A -->
<g id="edge1" class="edge">
<title>K&#45;&gt;A</title>
<path fill="none" stroke="#000000" d="M217.117,-205.1881C219.7316,-204.2926 222.3427,-203.3982 224.9434,-202.5075"/>
<polygon fill="#000000" stroke="#000000" points="237.1241,-198.3354 227.1212,-207.7074 231.2113,-200.3607 225.2985,-202.3859 225.2985,-202.3859 225.2985,-202.3859 231.2113,-200.3607 223.4758,-197.0644 237.1241,-198.3354 237.1241,-198.3354"/>
</g>
<!-- L -->
<g id="node2" class="node">
<title>L</title>
<polygon fill="#009e73" fill-opacity="0.501961" stroke="#000000" points="180.9212,-196.3004 44.1994,-196.3004 44.1994,-143.6996 180.9212,-143.6996 180.9212,-196.3004"/>
<text text-anchor="middle" x="112.5603" y="-165.8" font-family="Helvetica,sans-Serif" font-size="14.00" fill="#000000">EAT&#45;Lancet diet</text>
</g>
<!-- M -->
<g id="node3" class="node">
<title>M</title>
<polygon fill="#009e73" fill-opacity="0.501961" stroke="#000000" points="169.3459,-68.3004 55.7747,-68.3004 55.7747,-15.6996 169.3459,-15.6996 169.3459,-68.3004"/>
<text text-anchor="middle" x="112.5603" y="-37.8" font-family="Helvetica,sans-Serif" font-size="14.00" fill="#000000">USDA LAFA</text>
</g>
<!-- M&#45;&gt;A -->
<g id="edge2" class="edge">
<title>M&#45;&gt;A</title>
<path fill="none" stroke="#000000" d="M195.4506,-95.4901C213.9321,-107.4164 233.2411,-119.8768 250.7809,-131.1954"/>
<polygon fill="#000000" stroke="#000000" points="261.3299,-138.0028 247.7769,-135.9514 256.0784,-134.6139 250.8269,-131.225 250.8269,-131.225 250.8269,-131.225 256.0784,-134.6139 253.8769,-126.4987 261.3299,-138.0028 261.3299,-138.0028"/>
</g>
<!-- B -->
<g id="node5" class="node">
<title>B</title>
<polygon fill="#009e73" fill-opacity="0.501961" stroke="#000000" points="572.9361,-336.3004 451.7791,-336.3004 451.7791,-283.6996 572.9361,-283.6996 572.9361,-336.3004"/>
<text text-anchor="middle" x="512.3576" y="-305.8" font-family="Helvetica,sans-Serif" font-size="14.00" fill="#000000">BEA I&#45;O table</text>
</g>
<!-- A&#45;&gt;B -->
<g id="edge3" class="edge">
<title>A&#45;&gt;B</title>
<path fill="none" stroke="#000000" d="M365.9241,-235.9986C376.4767,-246.8304 388.1275,-257.512 400.3766,-266.6481"/>
<polygon fill="#000000" stroke="#000000" points="410.906,-274 397.4368,-271.4559 405.7815,-270.4219 400.6571,-266.8439 400.6571,-266.8439 400.6571,-266.8439 405.7815,-270.4219 403.8773,-262.2319 410.906,-274 410.906,-274"/>
</g>
<!-- D -->
<g id="node7" class="node">
<title>D</title>
<polygon fill="#009e73" fill-opacity="0.501961" stroke="#000000" points="562.4168,-137.6011 462.2984,-137.6011 462.2984,-68.3989 562.4168,-68.3989 562.4168,-137.6011"/>
<text text-anchor="middle" x="512.3576" y="-107.2" font-family="Helvetica,sans-Serif" font-size="14.00" fill="#000000">FAOSTAT</text>
<text text-anchor="middle" x="512.3576" y="-90.4" font-family="Helvetica,sans-Serif" font-size="14.00" fill="#000000">trade data</text>
</g>
<!-- A&#45;&gt;D -->
<g id="edge4" class="edge">
<title>A&#45;&gt;D</title>
<path fill="none" stroke="#000000" d="M391.9038,-144.9035C396.5411,-143.2902 401.2437,-141.6543 405.9682,-140.0107"/>
<polygon fill="#000000" stroke="#000000" points="418.0803,-135.7972 408.1225,-145.217 412.1773,-137.8508 406.2743,-139.9043 406.2743,-139.9043 406.2743,-139.9043 412.1773,-137.8508 404.426,-134.5916 418.0803,-135.7972 418.0803,-135.7972"/>
</g>
<!-- E -->
<g id="node8" class="node">
<title>E</title>
<polygon fill="#009e73" fill-opacity="0.501961" stroke="#000000" points="809.3529,-336.3004 642.9611,-336.3004 642.9611,-283.6996 809.3529,-283.6996 809.3529,-336.3004"/>
<text text-anchor="middle" x="726.157" y="-305.8" font-family="Helvetica,sans-Serif" font-size="14.00" fill="#000000">USDA Census of Ag.</text>
</g>
<!-- B&#45;&gt;E -->
<g id="edge5" class="edge">
<title>B&#45;&gt;E</title>
<path fill="none" stroke="#000000" d="M614.8073,-310C619.9655,-310 625.1376,-310 630.2753,-310"/>
<polygon fill="#000000" stroke="#000000" points="634.8092,-310 622.3093,-315.6253 628.5592,-310.0001 622.3092,-310.0003 622.3092,-310.0003 622.3092,-310.0003 628.5592,-310.0001 622.3091,-304.3753 634.8092,-310 634.8092,-310"/>
</g>
<!-- C -->
<g id="node6" class="node">
<title>C</title>
<polygon fill="#d55e00" fill-opacity="0.501961" stroke="#000000" points="577.7608,-265.3004 446.9544,-265.3004 446.9544,-212.6996 577.7608,-212.6996 577.7608,-265.3004"/>
<text text-anchor="middle" x="512.3576" y="-234.8" font-family="Helvetica,sans-Serif" font-size="14.00" fill="#000000">USEEIO model</text>
</g>
<!-- G -->
<g id="node10" class="node">
<title>G</title>
<polygon fill="#009e73" fill-opacity="0.501961" stroke="#000000" points="803.4194,-137.6011 648.8946,-137.6011 648.8946,-68.3989 803.4194,-68.3989 803.4194,-137.6011"/>
<text text-anchor="middle" x="726.157" y="-107.2" font-family="Helvetica,sans-Serif" font-size="14.00" fill="#000000">FAOSTAT</text>
<text text-anchor="middle" x="726.157" y="-90.4" font-family="Helvetica,sans-Serif" font-size="14.00" fill="#000000">yield and FBS data</text>
</g>
<!-- D&#45;&gt;G -->
<g id="edge6" class="edge">
<title>D&#45;&gt;G</title>
<path fill="none" stroke="#000000" d="M607.6346,-103C617.0995,-103 626.6875,-103 636.0969,-103"/>
<polygon fill="#000000" stroke="#000000" points="641.0259,-103 628.526,-108.6253 634.7759,-103.0001 628.5259,-103.0003 628.5259,-103.0003 628.5259,-103.0003 634.7759,-103.0001 628.5258,-97.3753 641.0259,-103 641.0259,-103"/>
</g>
<!-- H -->
<g id="node13" class="node">
<title>H</title>
<path fill="#0072b2" fill-opacity="0.501961" stroke="#000000" d="M970.5348,-213.7002C970.5348,-213.7002 857.4948,-213.7002 857.4948,-213.7002 851.4948,-213.7002 845.4948,-207.7002 845.4948,-201.7002 845.4948,-201.7002 845.4948,-124.2998 845.4948,-124.2998 845.4948,-118.2998 851.4948,-112.2998 857.4948,-112.2998 857.4948,-112.2998 970.5348,-112.2998 970.5348,-112.2998 976.5348,-112.2998 982.5348,-118.2998 982.5348,-124.2998 982.5348,-124.2998 982.5348,-201.7002 982.5348,-201.7002 982.5348,-207.7002 976.5348,-213.7002 970.5348,-213.7002"/>
<text text-anchor="middle" x="914.0148" y="-168.4" font-family="Helvetica,sans-Serif" font-weight="bold" font-size="18.00" fill="#000000">Total land</text>
<text text-anchor="middle" x="914.0148" y="-146.8" font-family="Helvetica,sans-Serif" font-weight="bold" font-size="18.00" fill="#000000">footprint</text>
</g>
<!-- E&#45;&gt;H -->
<g id="edge7" class="edge">
<title>E&#45;&gt;H</title>
<path fill="none" stroke="#000000" d="M817.5048,-274C837.0354,-260.1962 855.1928,-241.636 870.3677,-223.6471"/>
<polygon fill="#000000" stroke="#000000" points="878.4812,-213.7459 874.9092,-226.9797 874.5198,-218.5802 870.5584,-223.4144 870.5584,-223.4144 870.5584,-223.4144 874.5198,-218.5802 866.2076,-219.8492 878.4812,-213.7459 878.4812,-213.7459"/>
</g>
<!-- F -->
<g id="node9" class="node">
<title>F</title>
<polygon fill="#d55e00" fill-opacity="0.501961" stroke="#000000" points="800.1864,-265.3004 652.1276,-265.3004 652.1276,-212.6996 800.1864,-212.6996 800.1864,-265.3004"/>
<text text-anchor="middle" x="726.157" y="-234.8" font-family="Helvetica,sans-Serif" font-size="14.00" fill="#000000">land satellite table</text>
</g>
<!-- G&#45;&gt;H -->
<g id="edge8" class="edge">
<title>G&#45;&gt;H</title>
<path fill="none" stroke="#000000" d="M811.2862,-130.1894C818.5977,-132.5247 825.9809,-134.8828 833.2566,-137.2066"/>
<polygon fill="#000000" stroke="#000000" points="845.216,-141.0263 831.5972,-142.5815 839.2623,-139.1247 833.3086,-137.2231 833.3086,-137.2231 833.3086,-137.2231 839.2623,-139.1247 835.02,-131.8648 845.216,-141.0263 845.216,-141.0263"/>
</g>
<!-- I -->
<g id="node11" class="node">
<title>I</title>
<polygon fill="#009e73" fill-opacity="0.501961" stroke="#000000" points="1173.1987,-189.3004 1028.9939,-189.3004 1028.9939,-136.6996 1173.1987,-136.6996 1173.1987,-189.3004"/>
<text text-anchor="middle" x="1101.0963" y="-158.8" font-family="Helvetica,sans-Serif" font-size="14.00" fill="#000000">IUCN, WWF data</text>
</g>
<!-- J -->
<g id="node12" class="node">
<title>J</title>
<polygon fill="#d55e00" fill-opacity="0.501961" stroke="#000000" points="1183.7394,-118.6011 1018.4532,-118.6011 1018.4532,-49.3989 1183.7394,-49.3989 1183.7394,-118.6011"/>
<text text-anchor="middle" x="1101.0963" y="-88.2" font-family="Helvetica,sans-Serif" font-size="14.00" fill="#000000">Chaudhary &amp; Brooks</text>
<text text-anchor="middle" x="1101.0963" y="-71.4" font-family="Helvetica,sans-Serif" font-size="14.00" fill="#000000">model</text>
</g>
<!-- H&#45;&gt;I -->
<g id="edge9" class="edge">
<title>H&#45;&gt;I</title>
<path fill="none" stroke="#000000" d="M982.6147,-163C987.5865,-163 992.6598,-163 997.7724,-163"/>
<polygon fill="#000000" stroke="#000000" points="1010.5268,-163 998.0269,-168.6251 1004.2768,-163 998.0268,-163.0001 998.0268,-163.0001 998.0268,-163.0001 1004.2768,-163 998.0268,-157.3751 1010.5268,-163 1010.5268,-163"/>
</g>
</g>
</svg>

